<?xml version="1.0" encoding="UTF-8"?>
<svg version="1.1" xmlns="http://www.w3.org/2000/svg" width="636" height="620">
<path d="M0 0 C1.01653656 -0.00570007 2.03307312 -0.01140015 3.08041382 -0.01727295 C5.22677592 -0.02666837 7.37315208 -0.03323504 9.51953125 -0.03710938 C12.71642207 -0.04670389 15.91263753 -0.07773392 19.109375 -0.109375 C38.30670149 -0.20911412 57.19117726 1.60135094 75.8984375 6.015625 C77.0227417 6.27496826 78.1470459 6.53431152 79.30541992 6.80151367 C97.30337221 11.03700362 114.19816054 16.82212966 131.1484375 24.203125 C132.27113037 24.68604004 132.27113037 24.68604004 133.41650391 25.17871094 C151.45807767 33.00846396 168.5258606 43.27324228 184.1484375 55.203125 C185.0132373 55.85595459 185.0132373 55.85595459 185.89550781 56.52197266 C193.44200568 62.23633712 200.586399 68.25379898 207.48828125 74.73046875 C209.64195744 76.73234397 211.82824733 78.63500209 214.0859375 80.515625 C224.16804846 89.30086692 232.77615907 99.78772534 240.81005859 110.43212891 C242.14743514 112.20179864 243.50121791 113.95806999 244.85546875 115.71484375 C252.46398853 125.7092013 258.91260421 136.31084942 265.1484375 147.203125 C265.55304199 147.90099121 265.95764648 148.59885742 266.37451172 149.31787109 C302.82324341 212.68737178 309.72395462 292.32740515 291.31689453 362.3671875 C279.40969444 405.65173577 257.80339126 444.62754444 228.1484375 478.203125 C227.45331055 478.99299805 227.45331055 478.99299805 226.74414062 479.79882812 C214.7712347 493.31556554 201.62307519 505.41406362 187.1484375 516.203125 C186.59365723 516.62013672 186.03887695 517.03714844 185.46728516 517.46679688 C152.08678798 542.42672535 112.43416235 561.35478202 71.1484375 568.203125 C69.22312617 562.93887286 68.1064188 557.62371919 67.0234375 552.140625 C66.84167969 551.25568359 66.65992188 550.37074219 66.47265625 549.45898438 C66.21548828 548.17024414 66.21548828 548.17024414 65.953125 546.85546875 C65.72085205 545.69519165 65.72085205 545.69519165 65.48388672 544.51147461 C65.12556527 542.04573275 65.09179386 539.69132054 65.1484375 537.203125 C66.15704834 536.94789063 66.15704834 536.94789063 67.18603516 536.6875 C124.57310554 522.03631109 177.62635441 493.07754298 214.1484375 445.203125 C214.56657715 444.66139648 214.9847168 444.11966797 215.41552734 443.56152344 C223.09703539 433.56799638 229.83801615 423.10904893 236.1484375 412.203125 C236.73987549 411.18726318 236.73987549 411.18726318 237.34326172 410.15087891 C254.86547931 379.68687843 265.28785057 344.19144673 268.1484375 309.203125 C268.21691895 308.38634277 268.28540039 307.56956055 268.35595703 306.72802734 C270.90224019 273.96994109 266.6973214 241.55539163 257.1484375 210.203125 C256.90818848 209.39907227 256.66793945 208.59501953 256.42041016 207.76660156 C247.89582571 179.77456734 233.32231467 153.06167618 215.1484375 130.203125 C214.43300781 129.295625 213.71757813 128.388125 212.98046875 127.453125 C201.40997208 113.03608136 188.69370563 99.63857938 174.1484375 88.203125 C173.18550781 87.42324219 172.22257812 86.64335938 171.23046875 85.83984375 C138.38569185 59.73886135 99.14768434 43.18630873 58.1484375 35.203125 C56.89957764 34.95320801 56.89957764 34.95320801 55.62548828 34.69824219 C28.30622898 29.48789579 -3.60777806 29.68253151 -30.8515625 35.203125 C-31.87910645 35.40711914 -32.90665039 35.61111328 -33.96533203 35.82128906 C-55.51101548 40.20638298 -76.06667469 46.58254966 -95.8515625 56.203125 C-96.74633301 56.63753906 -97.64110352 57.07195312 -98.56298828 57.51953125 C-116.28263528 66.22328124 -132.77706753 76.40311242 -147.8515625 89.203125 C-148.92289783 90.09018113 -149.99453531 90.9768724 -151.06640625 91.86328125 C-163.49791941 102.23447644 -174.92444445 113.3851429 -184.8515625 126.203125 C-185.63789063 127.18410156 -186.42421875 128.16507812 -187.234375 129.17578125 C-194.07556107 137.77551248 -200.09868685 146.84606412 -205.8515625 156.203125 C-206.24730469 156.84588379 -206.64304687 157.48864258 -207.05078125 158.15087891 C-218.01279519 176.19798291 -225.86525752 196.0003264 -231.8515625 216.203125 C-232.20492676 217.39373535 -232.20492676 217.39373535 -232.56542969 218.60839844 C-250.91163986 282.07424676 -241.5806807 351.22345841 -210.8515625 409.203125 C-202.34872752 424.54429702 -192.24344669 438.87523186 -180.8515625 452.203125 C-180.20316406 452.96367187 -179.55476563 453.72421875 -178.88671875 454.5078125 C-167.35968644 467.64995682 -154.97676473 479.88555065 -140.8515625 490.203125 C-139.70051233 491.06118652 -138.54947073 491.91925951 -137.3984375 492.77734375 C-129.20880269 498.81489896 -120.70617974 504.19769802 -111.8515625 509.203125 C-111.14435059 509.6053125 -110.43713867 510.0075 -109.70849609 510.421875 C-87.20835287 523.08964862 -62.73226029 531.9043317 -37.40893555 536.91137695 C-32.05540417 537.99928333 -32.05540417 537.99928333 -29.8515625 540.203125 C-30.08349609 543.09228516 -30.08349609 543.09228516 -30.75 546.7421875 C-30.86381012 547.38304291 -30.97762024 548.02389832 -31.09487915 548.68417358 C-31.46148339 550.73424049 -31.84380913 552.78101799 -32.2265625 554.828125 C-32.4776018 556.21595824 -32.72761498 557.60397751 -32.9765625 558.9921875 C-33.58966253 562.39807374 -34.21689554 565.80118377 -34.8515625 569.203125 C-84.08004228 565.96323592 -133.85951135 538.74427305 -170.8515625 507.203125 C-171.95908128 506.28058435 -173.06718722 505.35874827 -174.17578125 504.4375 C-185.29547437 495.13304666 -195.70374127 485.30198872 -204.703125 473.8984375 C-206.11346795 472.12909817 -207.56617501 470.39255745 -209.0625 468.6953125 C-222.55369452 453.32162572 -233.535734 435.37001882 -242.8515625 417.203125 C-243.22297363 416.4901123 -243.59438477 415.77709961 -243.97705078 415.04248047 C-263.37595279 377.44504122 -271.85031143 336.16685833 -273.8515625 294.203125 C-273.90570313 293.09348389 -273.90570313 293.09348389 -273.9609375 291.96142578 C-274.13820389 287.69706117 -274.0594182 283.46323889 -273.8515625 279.203125 C-273.80515625 278.23004395 -273.75875 277.25696289 -273.7109375 276.25439453 C-270.23720392 208.98041212 -246.08692976 143.64690549 -199.5546875 94.1171875 C-197.48075872 91.88142034 -195.48187203 89.6204495 -193.49609375 87.30859375 C-189.9700287 83.2635118 -186.21453308 79.54574235 -182.2890625 75.890625 C-181.59288818 75.24182373 -180.89671387 74.59302246 -180.17944336 73.92456055 C-173.69054246 67.94598121 -166.93901326 62.4515357 -159.8515625 57.203125 C-159.23297363 56.73874023 -158.61438477 56.27435547 -157.97705078 55.79589844 C-118.13270909 26.04089648 -70.34290974 6.69553667 -20.8515625 1.203125 C-20.119375 1.11806198 -19.3871875 1.03299896 -18.6328125 0.94535828 C-12.40916558 0.2642056 -6.25817906 0.02814703 0 0 Z " fill="#000000" transform="translate(308.8515625,26.796875)"/>
<path d="M0 0 C0.8368335 3.62420124 1.66887234 7.24948637 2.5 10.875 C2.73847656 11.90753906 2.97695313 12.94007812 3.22265625 14.00390625 C3.44824219 14.99003906 3.67382812 15.97617188 3.90625 16.9921875 C4.11572266 17.90339355 4.32519531 18.81459961 4.54101562 19.75341797 C5 22 5 22 5 24 C4.22624023 24.22550537 3.45248047 24.45101074 2.65527344 24.68334961 C-41.19250375 37.5745961 -80.1817648 58.68242045 -109 95 C-109.81855469 96.01320313 -110.63710937 97.02640625 -111.48046875 98.0703125 C-143.30462807 137.94167622 -158.2266946 191.39860279 -153 242 C-151.13785017 257.40719754 -147.77443227 272.24548415 -143 287 C-142.78682129 287.67869141 -142.57364258 288.35738281 -142.35400391 289.05664062 C-135.91666064 309.21098736 -125.01069838 328.3941224 -112 345 C-111.56010742 345.56541504 -111.12021484 346.13083008 -110.66699219 346.71337891 C-77.78434765 388.45284393 -29.44998654 415.31711525 23.15917969 422.22412109 C53.19173771 425.51572338 83.33904203 422.58188211 112 413 C112.72219727 412.76023437 113.44439453 412.52046875 114.18847656 412.2734375 C124.57949638 408.75662559 134.33528955 404.1676615 144 399 C144.60585938 398.67773438 145.21171875 398.35546875 145.8359375 398.0234375 C191.69269651 373.39295122 225.24575482 330.42265137 240.92724609 281.08251953 C256.80593441 228.05504435 250.07983674 172.40352789 224.35327148 123.66650391 C213.51928119 103.81936203 198.53610068 84.31340668 181 70 C180.49404297 69.57638184 179.98808594 69.15276367 179.46679688 68.71630859 C169.81785173 60.64321012 159.77971532 53.4885097 149 47 C148.3925293 46.63422852 147.78505859 46.26845703 147.15917969 45.89160156 C131.73206395 36.77907895 114.36217665 30.30293113 97 26 C97.62231107 23.14522349 98.24776536 20.29119519 98.875 17.4375 C99.13603516 16.23770508 99.13603516 16.23770508 99.40234375 15.01367188 C100.44443603 10.28566059 101.61731723 5.64008408 103 1 C139.54015138 8.85587413 171.48687479 27.4566683 199.52197266 51.72167969 C200.86760772 52.8854962 202.22052834 54.04087546 203.57421875 55.1953125 C207.7982655 58.85280629 211.61136907 62.63278977 215.2109375 66.90625 C216.43041215 68.3334081 217.68792852 69.72871479 218.9765625 71.09375 C232.0828522 85.0102467 242.05703736 101.19270688 251 118 C251.37995117 118.70914551 251.75990234 119.41829102 252.15136719 120.14892578 C268.39153556 150.9753099 275.46663971 186.44145369 275.3125 221.0625 C275.30976578 222.34250885 275.30976578 222.34250885 275.30697632 223.64837646 C275.25810036 237.27919684 274.65090657 250.59287838 272 264 C271.82839355 264.87140625 271.65678711 265.7428125 271.47998047 266.640625 C260.77302723 318.9984875 231.89822853 368.48651374 189 401 C188.3611084 401.48823242 187.7222168 401.97646484 187.06396484 402.47949219 C176.22318754 410.71457815 165.10818836 417.7861741 153 424 C152.27296875 424.3810791 151.5459375 424.7621582 150.796875 425.15478516 C119.22778553 441.57602917 83.84771125 449.48642788 48.375 449.3125 C47.20478302 449.30976578 47.20478302 449.30976578 46.01092529 449.30697632 C32.82449632 449.25541828 19.97969975 448.47289819 7 446 C6.09185547 445.82839355 5.18371094 445.65678711 4.24804688 445.47998047 C-39.98861508 436.83203764 -78.44474501 415.92949934 -111 385 C-111.53560547 384.49307617 -112.07121094 383.98615234 -112.62304688 383.46386719 C-147.37783798 350.34143547 -168.5719777 305.91567623 -177 259 C-177.23332031 257.70707031 -177.46664062 256.41414063 -177.70703125 255.08203125 C-186.7204806 196.65672287 -171.21215495 135.30671399 -136.48706055 87.71313477 C-131.94085216 81.58681991 -127.19758372 75.72968058 -121.9921875 70.14453125 C-120.19306211 68.20782568 -118.50290804 66.21851264 -116.8125 64.1875 C-103.29722159 48.78132255 -86.44149826 36.57469083 -69 26 C-68.41379883 25.63841797 -67.82759766 25.27683594 -67.22363281 24.90429688 C-49.21636662 13.88419981 -29.35683032 6.39117591 -9 1 C-8.04335449 0.71974976 -8.04335449 0.71974976 -7.06738281 0.43383789 C-4.67041998 -0.06916199 -2.44236405 -0.06784345 0 0 Z " fill="#DE1A23" transform="translate(276,93)"/>
<path d="M0 0 C2.27127474 1.97693099 4.51689932 3.98010644 6.75 6 C7.62269531 6.78761719 8.49539063 7.57523438 9.39453125 8.38671875 C37.78390014 35.4001893 57.69814493 77.6285886 58.92700195 117.04736328 C58.95310122 118.47158703 58.97329119 119.89592851 58.98828125 121.3203125 C58.9980751 122.09310547 59.00786896 122.86589844 59.01795959 123.66210938 C59.18721435 140.47678502 59.09731367 156.63636725 54.75 173 C54.42854004 174.26118652 54.42854004 174.26118652 54.10058594 175.54785156 C46.1974169 205.99863531 30.29937792 231.34294378 8.75 254 C7.87988281 254.94939453 7.87988281 254.94939453 6.9921875 255.91796875 C-7.21788115 270.94922227 -36.47468142 293.29877673 -57.62109375 295.21484375 C-60.67474476 294.9963256 -62.81311185 294.34701401 -65.21533203 292.43896484 C-67.9229339 289.19335137 -69.54007382 285.73546979 -71.3046875 281.9140625 C-71.87197823 280.7126059 -71.87197823 280.7126059 -72.45072937 279.48687744 C-73.68379596 276.87006601 -74.90450269 274.24769427 -76.125 271.625 C-76.97836738 269.80711725 -77.83245885 267.98957424 -78.68725586 266.17236328 C-80.82234606 261.62817195 -82.94740008 257.07937015 -85.06939697 252.52905273 C-86.79418516 248.83426272 -88.52801325 245.14373659 -90.26171875 241.453125 C-93.09798794 235.41229186 -95.90609779 229.35887393 -98.70849609 223.30224609 C-100.22640676 220.050542 -101.77515719 216.81523135 -103.33203125 213.58203125 C-104.26317089 211.61725861 -105.19416945 209.65241909 -106.125 207.6875 C-106.5485376 206.82817871 -106.9720752 205.96885742 -107.40844727 205.08349609 C-109.9036943 199.7571136 -111.31573132 194.90996458 -110.25 189 C-107.72631975 185.32919236 -106.07964117 184.24135016 -101.8125 183 C-97.6054481 183 -95.78701549 183.75252141 -92.25 186 C-90.78968095 188.21021262 -89.74707202 190.11088198 -88.6875 192.5 C-88.36289795 193.18868164 -88.0382959 193.87736328 -87.70385742 194.58691406 C-86.96142105 196.16215859 -86.22631728 197.74087195 -85.49707031 199.32226562 C-84.13052318 202.25654303 -82.72172205 205.16790048 -81.3046875 208.078125 C-73.91269588 223.27158047 -66.73056932 238.55939361 -59.671875 253.91015625 C-58.70844702 256.00375936 -57.73952236 258.0948402 -56.765625 260.18359375 C-56.30671875 261.17488281 -55.8478125 262.16617187 -55.375 263.1875 C-54.96507812 264.06792969 -54.55515625 264.94835937 -54.1328125 265.85546875 C-53.25 268 -53.25 268 -53.25 270 C-36.90582045 262.31114812 -22.66876422 253.10566799 -9.25 241 C-8.47398437 240.30777344 -7.69796875 239.61554688 -6.8984375 238.90234375 C20.67484577 212.88319099 35.99703118 174.4448195 37.75 137 C38.75363286 98.52488211 25.65230279 61.28367743 0.75 32 C-0.06082031 31.04222656 -0.87164062 30.08445312 -1.70703125 29.09765625 C-26.29771027 0.79180571 -65.03397408 -17.37617016 -102.25 -20 C-145.39468014 -22.00868737 -185.4131855 -8.56687902 -217.5 20.5 C-245.04065522 46.11485997 -262.82743467 83.60875577 -265.15625 121.27734375 C-265.1871875 122.17582031 -265.218125 123.07429687 -265.25 124 C-265.3015625 125.13566406 -265.353125 126.27132812 -265.40625 127.44140625 C-266.31221311 164.85013295 -253.02485228 201.95221573 -228.25 230 C-226.96996094 231.47919922 -226.96996094 231.47919922 -225.6640625 232.98828125 C-214.6968354 245.46610741 -201.27799302 256.69835557 -186.25 264 C-183.02190541 257.0746577 -180.35227399 250.00940243 -177.78515625 242.81640625 C-177.13155128 240.99854619 -176.47794531 239.18068648 -175.82430077 237.36284065 C-175.12974721 235.42924223 -174.43684206 233.49506043 -173.74441528 231.56069946 C-172.29479278 227.51139198 -170.84013409 223.46390551 -169.38452148 219.41674805 C-167.61444698 214.49456701 -165.84513426 209.57211411 -164.07704258 204.64922047 C-159.68113021 192.41046671 -155.27142075 180.1767122 -150.84932613 167.94739437 C-149.30277628 163.67032078 -147.7595576 159.3920549 -146.21704102 155.11352539 C-143.91433398 148.73508124 -141.5890508 142.36519595 -139.25 136 C-138.91168152 135.07298279 -138.57336304 134.14596558 -138.22479248 133.19085693 C-137.29610124 130.65766952 -136.35230902 128.13074204 -135.40234375 125.60546875 C-135.13861465 124.88112137 -134.87488556 124.15677399 -134.60316467 123.41047668 C-133.09198502 119.45783018 -131.60190558 116.63512034 -128.25 114 C-124.21304028 112.8786223 -121.9728201 112.74979304 -118 114.125 C-114.84186101 116.27827658 -113.57754002 117.40783289 -112.25 121 C-112.60195512 128.31114943 -114.5645662 134.44031542 -117.125 141.2578125 C-117.52106949 142.33748795 -117.91713898 143.41716339 -118.32521057 144.52955627 C-119.62428929 148.06483077 -120.93720581 151.59479838 -122.25 155.125 C-123.16507688 157.60872743 -124.0790437 160.09286408 -124.99194336 162.57739258 C-126.38801939 166.37614274 -127.78493478 170.17457085 -129.18675232 173.97120667 C-133.1054743 184.5850768 -136.96074958 195.22102583 -140.7947998 205.86572266 C-141.81252015 208.68755588 -142.8337987 211.50807362 -143.85644531 214.328125 C-147.27610088 223.75882034 -150.68000447 233.19457741 -154.04747009 242.64405823 C-155.76920429 247.46772993 -157.50240424 252.28723682 -159.23751831 257.10610962 C-160.07230077 259.43288236 -160.9020809 261.76145651 -161.72659302 264.09188843 C-162.87253635 267.32907361 -164.03582513 270.55952806 -165.203125 273.7890625 C-165.5389006 274.75134262 -165.87467621 275.71362274 -166.22062683 276.70506287 C-168.36458297 282.56712248 -170.41687115 287.08343557 -176.25 290 C-183.61422042 290.13295659 -189.23492204 288.05694989 -195.5625 284.5 C-196.38427734 284.05148682 -197.20605469 283.60297363 -198.05273438 283.14086914 C-205.12992779 279.21147745 -211.78622203 274.88277282 -218.25 270 C-219.12140625 269.35160156 -219.9928125 268.70320313 -220.890625 268.03515625 C-257.74241306 239.29296826 -280.29971838 197.05629196 -286.25 151 C-291.40706694 106.68927918 -279.14400732 61.3916948 -251.94140625 25.99609375 C-246.95660482 19.78453009 -241.6648863 13.83839696 -236.25 8 C-235.71246094 7.40832031 -235.17492187 6.81664062 -234.62109375 6.20703125 C-175.81876167 -55.83753468 -70.12615839 -56.7325473 0 0 Z " fill="#000000" transform="translate(439.25,186)"/>
</svg>
